<!DOCTYPE svg PUBLIC "-//W3C//DTD SVG 1.1//EN" "http://www.w3.org/Graphics/SVG/1.1/DTD/svg11.dtd">
<!-- Uploaded to: SVG Repo, www.svgrepo.com, Transformed by: SVG Repo Mixer Tools -->
<svg fill="#005f86" version="1.1" id="Capa_1" xmlns="http://www.w3.org/2000/svg" xmlns:xlink="http://www.w3.org/1999/xlink" width="800px" height="800px" viewBox="0 0 56.48 56.48" xml:space="preserve">
<g id="SVGRepo_bgCarrier" stroke-width="0"/>
<g id="SVGRepo_tracerCarrier" stroke-linecap="round" stroke-linejoin="round"/>
<g id="SVGRepo_iconCarrier"> <g> <path d="M28.75,39.462h-1.869v-1.543l1.891,0.038C29.418,37.955,29.719,39.501,28.75,39.462z M22.183,37.958l-1.89-0.038v1.543 h1.869C23.131,39.501,22.83,37.955,22.183,37.958z M22.485,40.708l-2.191,0.04v1.598l2.17,0.018 C23.286,42.386,23.34,40.72,22.485,40.708z M29.072,40.708l-2.191,0.04v1.598l2.169,0.018 C29.874,42.386,29.928,40.72,29.072,40.708z M56.48,11.393v33.695c0,0.803-0.65,1.454-1.454,1.454H1.454 C0.65,46.542,0,45.89,0,45.087V11.393c0-0.803,0.65-1.454,1.454-1.454h53.572C55.83,9.939,56.48,10.59,56.48,11.393z M27.996,22.573c1.6,1.19,4.283,1.902,2.911,4.702c-0.084,0.148-0.009,0.221,0.108,0.2c0.062,0.014,0.154-0.014,0.242-0.088 c1.957-2.27,5.143-5.852,2.461-8.776c-1.521-1.647-4.646-2.734-5.271-4.298c-0.121-0.303,0.013-0.741,0.18-1.087 c0.103-0.247-0.108-0.354-0.244-0.333c-0.07-0.01-0.137,0.008-0.163,0.053C26.903,15.685,22.2,18.342,27.996,22.573z M25.982,28.853c1.058,0.633,2.426,1.423,2.276,2.58c-0.057,0.146,0.076,0.166,0.177,0.048c1.507-1.728,2.639-4.198,0.793-5.854 c-0.964-0.935-3.245-1.438-3.493-3.038c0.056-0.218-0.191-0.239-0.224-0.152C24.834,24.282,21.407,26.404,25.982,28.853z M23.322,40.084c1.58-1.177,0.642-3.362-0.58-3.329l-2.47-0.021h-0.001h-1.503v6.857h1.525v-0.006l2.686-0.042 C24.678,43.539,25.432,40.675,23.322,40.084z M29.909,40.084c1.58-1.177,0.642-3.362-0.58-3.329l-2.47-0.021h-0.001h-1.502v6.857 h1.525v-0.006l2.686-0.042C31.266,43.539,32.02,40.675,29.909,40.084z M31.363,33.574h2.605v-0.018l0.5-0.008l-0.511-1.434 l-0.01,0.04H22.433l-0.01-0.04l-0.51,1.434l0.496,0.008v0.018h2.578l0.712,1.936l5.01-0.017L31.363,33.574z M36.428,40.084 c1.58-1.177,0.642-3.362-0.58-3.329l-2.471-0.021l0,0h-1.504v6.857h1.525v-0.006l2.685-0.042 C37.782,43.539,38.537,40.675,36.428,40.084z M35.288,37.958l-1.891-0.038v1.543h1.868C36.235,39.501,35.936,37.955,35.288,37.958z M35.59,40.708l-2.191,0.04v1.598l2.169,0.018C36.391,42.386,36.444,40.72,35.59,40.708z"/> </g> </g>
</svg>